<svg xmlns="http://www.w3.org/2000/svg" xmlns:xlink="http://www.w3.org/1999/xlink" width="48" height="48" viewBox="0 0 48 48">
    <defs>
        <path id="a" d="M.582.216h31.391V31.61H.582z"/>
    </defs>
    <g fill="none" fill-rule="evenodd">
        <g transform="translate(15.805 16.17)">
            <mask id="b" fill="#fff">
                <use xlink:href="#a"/>
            </mask>
            <path fill="#2AC6CC" d="M2.918.313l27.868 9.576a1.763 1.763 0 0 1 1.091 2.24 1.75 1.75 0 0 1-1.033 1.077l-12.29 4.982-4.997 12.32c-.36.903-1.393 1.334-2.297.975a1.786 1.786 0 0 1-1.005-1.062L.678 2.552a1.763 1.763 0 0 1 2.24-2.24" mask="url(#b)"/>
        </g>
        <path fill="#94E3E6" d="M14.128 24.968a1.74 1.74 0 0 1 .445 2.44 1.756 1.756 0 0 1-2.44.46 11.321 11.321 0 0 1-4.911-9.332c0-2.9 1.106-5.787 3.317-7.998a11.287 11.287 0 0 1 7.997-3.316c2.9 0 5.8 1.105 8.012 3.316.473.475.933 1.034 1.32 1.594.546.79.345 1.896-.444 2.441-.805.56-1.91.36-2.455-.445a6.709 6.709 0 0 0-.92-1.091 7.771 7.771 0 0 0-5.513-2.283 7.738 7.738 0 0 0-5.499 2.283 7.716 7.716 0 0 0-2.283 5.499 7.83 7.83 0 0 0 3.374 6.432"/>
        <path fill="#94E3E6" d="M14.501 32.994a1.764 1.764 0 0 1 1.22 2.168 1.757 1.757 0 0 1-2.167 1.22 18.711 18.711 0 0 1-4.365-1.837 19.145 19.145 0 0 1-3.748-2.9 18.485 18.485 0 0 1-5.44-13.11C0 13.799 1.823 9.06 5.44 5.443A18.478 18.478 0 0 1 18.536 0c4.752 0 9.49 1.823 13.108 5.442a19.098 19.098 0 0 1 2.9 3.747 18.661 18.661 0 0 1 1.838 4.365 1.757 1.757 0 0 1-1.22 2.168 1.763 1.763 0 0 1-2.168-1.22 14.693 14.693 0 0 0-1.493-3.533 14.599 14.599 0 0 0-2.354-3.044 14.948 14.948 0 0 0-10.61-4.393A14.973 14.973 0 0 0 7.924 7.925a14.972 14.972 0 0 0-4.393 10.61c0 3.849 1.465 7.682 4.393 10.611a14.547 14.547 0 0 0 3.044 2.355c1.12.66 2.298 1.148 3.532 1.493"/>
    </g>
</svg>
