<svg xmlns="http://www.w3.org/2000/svg" xmlns:xlink="http://www.w3.org/1999/xlink" width="41" height="32" viewBox="0 0 41 32">
    <defs>
        <path id="a" d="M0 31.863h40.966V0H0z"/>
    </defs>
    <g fill="none" fill-rule="evenodd">
        <path fill="#231F20" d="M8.857 30.007a1.016 1.016 0 1 1 1.02 1.076 1.009 1.009 0 0 1-1.027-1.076h.007zm2.721 0v-1.681h-.731v.408a1.277 1.277 0 0 0-1.055-.493 1.758 1.758 0 0 0 0 3.516c.41.016.803-.167 1.055-.492v.408h.731v-1.666zm24.697 0a1.016 1.016 0 1 1 1.02 1.076 1.01 1.01 0 0 1-1.02-1.076zm3.868 1.427v.085h.077a.073.073 0 0 0 .043 0 .038.038 0 0 0 0-.032.039.039 0 0 0 0-.032.073.073 0 0 0-.043 0l-.077-.02zm.077-.06a.139.139 0 0 1 .092.029.087.087 0 0 1 .031.073.083.083 0 0 1-.024.063.121.121 0 0 1-.074.032l.102.116h-.081l-.095-.116h-.032v.116h-.066v-.31l.147-.003zm-.02.419a.249.249 0 0 0 .182-.078.26.26 0 0 0 0-.351.254.254 0 0 0-.285-.056.258.258 0 0 0-.084.056.26.26 0 0 0 0 .351.259.259 0 0 0 .197.078h-.01zm0-.594a.347.347 0 0 1 .242.094.324.324 0 0 1 0 .472.353.353 0 0 1-.11.07.329.329 0 0 1-.133.028.351.351 0 0 1-.316-.204.33.33 0 0 1 .073-.366.35.35 0 0 1 .253-.095h-.01zm-1.221-1.192v-3.032h-.703v1.759a1.277 1.277 0 0 0-1.055-.493 1.758 1.758 0 1 0 0 3.516c.41.016.802-.167 1.055-.492v.408h.703v-1.666zm-18.325-1.112c.46-.01.842.356.851.815h-1.758a.865.865 0 0 1 .893-.815h.014zm0-.654a1.76 1.76 0 0 0 .05 3.516 2.041 2.041 0 0 0 1.396-.456l-.352-.542a1.603 1.603 0 0 1-.978.352.932.932 0 0 1-1.005-.823h2.496v-.281c0-1.055-.654-1.759-1.596-1.759l-.01-.007zm8.827 1.758a1.016 1.016 0 1 1 1.02 1.076A1.008 1.008 0 0 1 29.48 30zm2.722 0v-1.673h-.731v.408a1.277 1.277 0 0 0-1.055-.493 1.758 1.758 0 1 0 0 3.516c.41.016.802-.167 1.055-.492v.408h.73v-1.674zm-6.85 0a1.699 1.699 0 0 0 1.793 1.758c.44.023.87-.12 1.21-.4l-.352-.591c-.253.193-.561.299-.88.303a1.08 1.08 0 0 1 0-2.153c.319.004.627.11.88.303l.352-.591a1.76 1.76 0 0 0-1.21-.401 1.698 1.698 0 0 0-1.794 1.758V30zm9.424-1.758a.992.992 0 0 0-.887.493v-.408h-.724v3.361h.732v-1.884c0-.556.239-.865.703-.865.156-.003.312.026.457.084l.225-.704a1.562 1.562 0 0 0-.52-.091l.014.014zm-19.59.352a2.517 2.517 0 0 0-1.372-.352c-.851 0-1.407.408-1.407 1.076 0 .549.408.886 1.16.992l.352.05c.401.055.591.161.591.35 0 .26-.267.408-.766.408a1.788 1.788 0 0 1-1.119-.351l-.351.57c.426.297.936.45 1.455.436.971 0 1.534-.457 1.534-1.098 0-.64-.443-.9-1.175-1.005l-.351-.05c-.317-.042-.57-.105-.57-.33 0-.225.239-.394.64-.394.37.005.734.104 1.055.288l.323-.59zm9.43-.352a.992.992 0 0 0-.886.493v-.408h-.724v3.361h.731v-1.884c0-.556.24-.865.704-.865.156-.003.312.026.457.084l.225-.704a1.562 1.562 0 0 0-.52-.091l.014.014zm-6.238.085h-1.202v-1.02h-.739v1.02h-.668v.667h.682v1.548c0 .78.303 1.245 1.168 1.245.323 0 .64-.09.914-.26l-.211-.627a1.348 1.348 0 0 1-.647.19c-.352 0-.485-.225-.485-.562v-1.534h1.195l-.007-.667zM7.454 31.687v-2.11a1.252 1.252 0 0 0-1.323-1.336 1.302 1.302 0 0 0-1.181.598 1.234 1.234 0 0 0-1.111-.598c-.394-.02-.768.17-.985.5v-.415h-.731v3.361h.738v-1.85a.788.788 0 0 1 .823-.893c.485 0 .731.317.731.887v1.87h.739v-1.863a.791.791 0 0 1 .681-.888c.047-.006.095-.008.142-.006.499 0 .738.317.738.887v1.87l.739-.014z"/>
        <mask id="b" fill="#fff">
            <use xlink:href="#a"/>
        </mask>
        <path fill="#FF5F00" d="M14.944 22.615H26.02V2.708H14.944z" mask="url(#b)"/>
        <path fill="#EB001B" d="M15.647 12.663a12.638 12.638 0 0 1 4.835-9.955C14.985-1.612 7.027-.658 2.706 4.839c-4.32 5.497-3.366 13.456 2.132 17.776a12.66 12.66 0 0 0 15.644 0 12.639 12.639 0 0 1-4.835-9.952" mask="url(#b)"/>
        <path fill="#F79E1B" d="M40.966 12.663c0 6.992-5.668 12.66-12.66 12.66a12.66 12.66 0 0 1-7.824-2.708c5.497-4.32 6.452-12.28 2.131-17.776a12.662 12.662 0 0 0-2.13-2.131c5.496-4.321 13.454-3.369 17.775 2.128a12.661 12.661 0 0 1 2.708 7.824v.003zM40.568 20.509v-.496h-.126l-.148.354-.147-.354h-.113v.496h.091v-.372l.138.322h.094l.137-.322v.376l.074-.004zm-.812 0v-.411h.165v-.085h-.418v.085h.179v.411h.074z" mask="url(#b)"/>
    </g>
</svg>
