<svg xmlns="http://www.w3.org/2000/svg" xmlns:xlink="http://www.w3.org/1999/xlink" width="59" height="48" viewBox="0 0 59 48">
    <defs>
        <path id="a" d="M0 .772h15.692v12.469H0z"/>
        <path id="c" d="M.034.028h16.187v12.386H.034z"/>
        <path id="e" d="M.248.524h22.518v17.683H.248z"/>
    </defs>
    <g fill="none" fill-rule="evenodd">
        <path fill="#BEEEF0" d="M48.248 21.765a6.11 6.11 0 0 0-6.123 6.124 6.11 6.11 0 0 0 6.123 6.125 6.11 6.11 0 0 0 6.124-6.125 6.11 6.11 0 0 0-6.124-6.124M10.345 21.765A6.11 6.11 0 0 0 4.22 27.89a6.11 6.11 0 0 0 6.124 6.125 6.11 6.11 0 0 0 6.124-6.125c0-3.393-2.814-6.124-6.124-6.124"/>
        <path fill="#2AC6CC" d="M29.131 14.897a6.852 6.852 0 0 0-6.869 6.869 6.852 6.852 0 0 0 6.869 6.868A6.852 6.852 0 0 0 36 21.766a6.852 6.852 0 0 0-6.869-6.87"/>
        <path fill="#94E3E6" d="M43.2 2.98c-.414-.249-.91-.249-1.324-.083l-.083.082a1.934 1.934 0 0 0-.58.58L38.07 8.855c-.166.331-.248.662-.166 1.076.083.414.331.662.58.828.496.248.993.248 1.407 0 .248-.166.413-.331.579-.58l3.145-5.296c.165-.331.248-.662.165-1.076 0-.248-.248-.58-.579-.828M14.565 2.98c.331-.166.91-.166 1.325-.083l.082.082c.249.166.414.331.58.58l3.144 5.296c.166.331.249.662.166 1.076-.083.414-.331.662-.58.828-.496.248-.992.248-1.406 0a1.934 1.934 0 0 1-.58-.58l-3.144-5.296c-.166-.331-.249-.662-.166-1.076 0-.248.248-.58.58-.828M7.945 17.214c.165 0 .248 0 .414-.083.413-.083.662-.331.827-.58a1.321 1.321 0 0 0-.58-1.903L3.31 11.586c-.248-.165-.496-.248-.662-.248h-.083c-.496 0-.827.33-1.158.662-.166.33-.248.662-.166 1.076.083.413.331.662.58.827L7.2 16.965c.331.166.58.249.745.249M56.855 12.083c-.248-.414-.58-.662-1.158-.662h-.083c-.248 0-.497.083-.662.248l-5.297 3.062c-.33.166-.58.497-.662.828-.083.413-.083.745.166 1.076.248.496.662.662 1.241.662.248 0 .497-.083.662-.166l5.297-3.062c.33-.165.579-.497.579-.828.083-.496.083-.91-.083-1.158M29.048 0c-.496 0-.91.248-1.158.58l-.083.082c-.166.248-.166.497-.166.662l-.082 6.207c0 .414.165.662.413.993.249.331.58.497.993.497.58 0 .994-.249 1.242-.662.165-.249.248-.497.248-.662l.083-6.207c0-.414-.166-.662-.414-.993C29.793.166 29.462 0 29.048 0"/>
        <g transform="translate(0 34.483)">
            <mask id="b" fill="#fff">
                <use xlink:href="#a"/>
            </mask>
            <path fill="#BEEEF0" d="M15.31.772H4.883C2.152.772 0 3.007 0 5.655l.265 7.586h15.427L15.31 1.104V.772z" mask="url(#b)"/>
        </g>
        <g transform="translate(42.207 35.31)">
            <mask id="d" fill="#fff">
                <use xlink:href="#c"/>
            </mask>
            <path fill="#BEEEF0" d="M16.221 4.828c-.165-2.566-2.4-4.8-5.05-4.8H.414v.248L.034 12.414h15.921l.266-7.586z" mask="url(#d)"/>
        </g>
        <g transform="translate(17.38 29.517)">
            <mask id="f" fill="#fff">
                <use xlink:href="#e"/>
            </mask>
            <path fill="#2AC6CC" d="M17.38.524H5.71A5.457 5.457 0 0 0 .248 5.986L.63 18.207h21.75l.378-12.138C22.924 3.007 20.441.524 17.38.524" mask="url(#f)"/>
        </g>
    </g>
</svg>
