<svg xmlns="http://www.w3.org/2000/svg" width="20" height="20" viewBox="0 0 20 20">
    <path fill="#2AC6CC" fill-rule="evenodd" d="M.363 6.802s.488 1.975 2.293 4.194c1.415 1.756 4.05 4.706 6.684 6.583 2.147 1.536 3.854 2.048 3.854 2.048 1.561.659 2.61.244 2.61.244.757-.22 1.44-.731 2.05-1.219.682-.56 1.341-1.17 1.902-1.829.195-.243.293-.463.22-.78-.269-.61-2.171-2.34-2.684-2.755-.366-.292-.707-.61-1.097-.853-.171-.098-.342-.195-.513-.244-.39-.073-.658.292-.902.536-.464.464-1.269 1.61-1.781 1.756-.512.17-1.952-.78-2.415-1.17C9.047 12.044 7.413 10.46 6.68 9.41 6.339 8.924 5.339 7.51 5.51 6.998c.146-.488 1.293-1.317 1.756-1.78.244-.244.61-.488.537-.902a1.004 1.004 0 0 0-.244-.513c-.244-.39-.561-.755-.854-1.097C6.291 2.194 4.56.292 3.95.024c-.293-.073-.537.025-.78.22-.684.56-1.294 1.219-1.83 1.902-.488.61-1 1.292-1.22 2.048 0 .024-.39 1.072.244 2.608"/>
</svg>
