<svg xmlns="http://www.w3.org/2000/svg" xmlns:xlink="http://www.w3.org/1999/xlink" width="59" height="48" viewBox="0 0 59 48">
    <defs>
        <path id="a" d="M0 .104h38.505V38.61H0z"/>
    </defs>
    <g fill="none" fill-rule="evenodd">
        <path fill="#94E3E6" d="M54.504 37.878H38.748c-1.044 1.958-2.348 5.583-5.53 7.2h21.286a2.282 2.282 0 0 0 2.296-2.295v-2.557c.052-1.304-.991-2.348-2.296-2.348M56.54 28.383H40.677v.47c0 2.4-.47 4.643-1.304 6.73h17.217c1.305 0 2.348-1.044 2.348-2.296v-2.556c-.052-1.253-1.095-2.348-2.4-2.348M54.504 26.14c1.305 0 2.296-1.044 2.296-2.349v-2.556c0-1.305-1.044-2.348-2.296-2.348h-16.8c1.409 2.139 2.348 4.591 2.766 7.2h14.034v.052zM56.54 9.496H33.27c-1.252 0-2.296.991-2.296 2.243 2.432 1.357 3.496 2.713 5.53 4.957H56.54a2.338 2.338 0 0 0 2.348-2.348V11.79c0-1.252-1.043-2.295-2.348-2.295M31.235 7.2h23.322c1.304 0 2.295-1.043 2.295-2.348V2.296A2.282 2.282 0 0 0 54.557 0H31.235c-1.304 0-2.348 1.044-2.348 2.296v2.556A2.338 2.338 0 0 0 31.235 7.2"/>
        <g transform="translate(0 9.391)">
            <mask id="b" fill="#fff">
                <use xlink:href="#a"/>
            </mask>
            <path fill="#BEEEF0" d="M38.505 19.356C38.505 8.78 29.89.104 19.252.104 8.676.104 0 8.717 0 19.356 0 29.933 8.613 38.61 19.252 38.61c10.64 0 19.253-8.613 19.253-19.253" mask="url(#b)"/>
        </g>
        <path fill="#2AC6CC" d="M15.467 20.544c1.085 0 1.92.275 2.504.826.334.335.593.785.777 1.353.183.567.275 1.36.275 2.379v1.628h8.215v2.755h-8.215v5.71c0 .467.066.814.2 1.04.134.225.434.337.902.337.501 0 .99-.108 1.465-.325a3.67 3.67 0 0 0 1.19-.84c.317-.342.476-.721.476-1.139 0-.15-.067-.292-.2-.425-.135-.134-.393-.2-.777-.2-.318 0-.584.024-.802.074l-.4-2.554c.6-.15 1.327-.226 2.179-.226.984 0 1.778.226 2.379.677.601.45.901 1.152.901 2.103 0 .902-.209 1.703-.625 2.404a5.53 5.53 0 0 1-1.654 1.754 8.03 8.03 0 0 1-2.241 1.064c-.81.242-1.6.363-2.367.363-.7 0-1.29-.083-1.765-.25-.476-.167-.856-.384-1.14-.652a2.52 2.52 0 0 1-.526-.613c-.15-.242-.271-.572-.363-.99-.092-.416-.138-.976-.138-1.677v-5.635h-2.104V26.73h2.104v-1.503c0-.634-.084-1.11-.25-1.427-.167-.317-.551-.476-1.152-.476-.45 0-.927.1-1.427.3l-.953-2.404a13.502 13.502 0 0 1 1.754-.513 8.716 8.716 0 0 1 1.778-.163"/>
    </g>
</svg>
