<svg xmlns="http://www.w3.org/2000/svg" width="32" height="32" viewBox="0 0 32 32">
    <path fill="#BCBCBC" fill-rule="evenodd" d="M24.06 12.775c.009.173.012.346.012.521 0 5.33-4.056 11.473-11.472 11.473-2.277 0-4.397-.667-6.182-1.811.316.037.637.056.962.056a8.09 8.09 0 0 0 5.008-1.726 4.04 4.04 0 0 1-3.766-2.801 4.034 4.034 0 0 0 1.82-.068 4.036 4.036 0 0 1-3.235-3.954v-.052a4.01 4.01 0 0 0 1.827.504 4.03 4.03 0 0 1-1.794-3.356c0-.739.2-1.432.546-2.028a11.445 11.445 0 0 0 8.312 4.213 4.032 4.032 0 0 1 6.87-3.678 8.039 8.039 0 0 0 2.562-.978 4.044 4.044 0 0 1-1.774 2.23 8.062 8.062 0 0 0 2.316-.634 8.146 8.146 0 0 1-2.012 2.089M16 0C7.165 0 0 7.165 0 16c0 8.838 7.164 16 16 16 8.838 0 16-7.162 16-16 0-8.835-7.163-16-16-16"/>
</svg>
