<svg xmlns="http://www.w3.org/2000/svg" width="32" height="32" viewBox="0 0 32 32">
    <g fill="none" fill-rule="evenodd">
        <path fill="#2AC6CC" d="M16 2.133C8.342 2.133 2.133 8.342 2.133 16c0 7.658 6.209 13.867 13.867 13.867 7.658 0 13.867-6.209 13.867-13.867 0-7.658-6.209-13.867-13.867-13.867"/>
        <path fill="#BEEEF0" d="M25.067 23.467a9.69 9.69 0 0 1-.475.533c-4.421 4.738-11.846 4.995-16.583.574-.198-.185-.39-.376-.574-.574a22.448 22.448 0 0 1-.475-.533 1.797 1.797 0 0 1-.283-1.846C7.664 19.312 11.461 17.6 16 17.6c4.539 0 8.336 1.712 9.339 4.016.263.62.158 1.333-.272 1.85M16 4.8a4.8 4.8 0 1 1 0 9.6 4.8 4.8 0 0 1 0-9.6M16 0C7.164 0 0 7.164 0 16s7.164 16 16 16 16-7.164 16-16S24.836 0 16 0"/>
    </g>
</svg>
