<svg xmlns="http://www.w3.org/2000/svg" xmlns:xlink="http://www.w3.org/1999/xlink" width="65" height="38" viewBox="0 0 65 38">
    <defs>
        <path id="a" d="M.035.123h12.002V12.07H.035z"/>
    </defs>
    <g fill="none" fill-rule="evenodd">
        <path fill="#BEEEF0" d="M61.19 16.91c-1.98-2.147-3.799-4.218-5.745-6.16-.478-.478-1.359-.684-2.08-.757-1.194-.12-2.409-.033-3.615-.033H47.67l-.6 6.95h14.12zM2.31 2.367c.04-.154.075-.288.105-.423.289-1.29 1.081-1.939 2.4-1.94C11.105 0 17.392.001 23.68 0H44.02c1.794 0 2.413.64 2.283 2.434-.132 1.817-.3 3.632-.46 5.549h.83c2.318 0 4.635-.005 6.953 0 1.428.003 2.653.51 3.624 1.56a968.56 968.56 0 0 1 6.294 6.873c.902.996 1.329 2.206 1.226 3.536-.258 3.342-.556 6.68-.874 10.018-.133 1.398-1.402 2.14-3.042 1.855-.094-.75-.115-1.52-.294-2.25-1.024-4.171-5.435-6.284-9.599-4.553-2.814 1.17-4.546 3.299-5.105 6.322-.068.37-.154.57-.582.57-7.743-.014-15.485-.015-23.227-.022-.045 0-.09-.033-.163-.062-.073-.689-.08-1.405-.232-2.09-.954-4.314-5.534-6.524-9.756-4.672-2.733 1.199-4.444 3.28-4.976 6.256-.07.396-.186.605-.647.595-1.454-.028-2.91.013-4.364-.022-1.28-.031-2.004-.834-1.9-2.117.225-2.798.488-5.593.742-8.47.251-.01 1.095-18.943 1.559-18.943z"/>
        <path fill="#2AC6CC" d="M52.772 37.877c-3.111.004-5.5-2.342-5.53-5.434-.036-3.45 3.013-6.513 6.505-6.534 3.078-.018 5.506 2.37 5.534 5.443.032 3.456-3.025 6.52-6.509 6.525"/>
        <g transform="translate(8.27 25.81)">
            <mask id="b" fill="#fff">
                <use xlink:href="#a"/>
            </mask>
            <path fill="#2AC6CC" d="M12.036 5.654c-.056 3.658-3.328 6.664-6.965 6.4C1.84 11.822-.407 8.95.109 5.717.684 2.102 4.077-.394 7.588.214c2.662.462 4.49 2.698 4.448 5.44" mask="url(#b)"/>
        </g>
    </g>
</svg>
