<svg xmlns="http://www.w3.org/2000/svg" width="63" height="20" viewBox="0 0 63 20">
    <path fill="#1D1F71" fill-rule="evenodd" d="M37.564 5.77c0-.642.641-1.411 2.18-1.667.769-.129 2.692-.129 5 .897L45.64.897C44.487.513 42.821 0 40.897 0c-5 0-8.461 2.692-8.461 6.41 0 2.82 2.564 4.36 4.359 5.257 1.923.897 2.564 1.538 2.564 2.436 0 1.282-1.538 1.923-3.077 1.923-2.564 0-3.974-.641-5.128-1.282l-.898 4.23C31.41 19.487 33.59 20 35.897 20c5.257 0 8.718-2.564 8.718-6.667 0-4.871-7.18-5.256-7.05-7.564zm18.846 7.179L54.872 5.64l-2.693 7.308h4.231zm5.77 6.923h-4.616l-.64-2.949h-6.411l-1.026 2.949h-5.256l7.564-18.077c.384-.898 1.154-1.41 2.18-1.41h4.358l3.846 19.487zM18.461.385L13.205 13.59l-2.18-11.282C10.77 1.026 9.745.385 8.719.385H.128L0 .897c1.795.385 3.718 1.026 5 1.667.77.385.897.77 1.154 1.667l3.974 15.513h5.385L23.718.256h-5.256v.129zm12.435 0l-4.102 19.487h-5.128L25.897.385h5z"/>
</svg>
